<svg height="2500" viewBox="0 0 2500 2500" width="2500" xmlns="http://www.w3.org/2000/svg" xmlns:xlink="http://www.w3.org/1999/xlink"><linearGradient id="a" gradientUnits="userSpaceOnUse" x1="1270.827" x2="1069.017" y1="609.251" y2="2575.283"><stop offset="0" stop-color="#1e2535"/><stop offset=".583" stop-color="#3d99cb"/><stop offset=".921" stop-color="#d7e7f5"/></linearGradient><radialGradient id="b" cx="7730.699" cy="-7829.16" gradientTransform="matrix(.95849691 -.28510291 .32843855 1.10418844 -2932.332 12552.69)" gradientUnits="userSpaceOnUse" r="660.853"><stop offset=".19" stop-color="#8fc2ea"/><stop offset=".37" stop-color="#d7e7f5"/><stop offset=".522" stop-color="#7fa4e0"/><stop offset=".661" stop-color="#142f4f"/></radialGradient><linearGradient id="c" gradientUnits="userSpaceOnUse" x1="592.189" x2="589.945" y1="1534.526" y2="2188.611"><stop offset="0" stop-color="#7fa4e0"/><stop offset=".105" stop-color="#86a9e1"/><stop offset=".262" stop-color="#9ab8e6"/><stop offset=".45" stop-color="#bbd2ee"/><stop offset=".583" stop-color="#d7e7f5"/><stop offset=".921" stop-color="#d7e7f5" stop-opacity=".5"/></linearGradient><linearGradient id="d" gradientUnits="userSpaceOnUse" x1="321.936" x2="859.876" y1="1908.352" y2="1908.352"><stop offset="0" stop-color="#489fce"/><stop offset="1" stop-color="#cadff1"/></linearGradient><linearGradient id="e" gradientUnits="userSpaceOnUse" x1="756.264" x2="815.664" y1="1907.735" y2="1907.735"><stop offset=".079" stop-color="#b6d3ea" stop-opacity="0"/><stop offset=".493" stop-color="#d7e7f5" stop-opacity=".43"/><stop offset=".777" stop-color="#7fa4e0"/><stop offset="1" stop-color="#112436"/></linearGradient><linearGradient id="f"><stop offset=".004" stop-color="#000001"/><stop offset=".179" stop-color="#16384b"/><stop offset=".489" stop-color="#3d99cb"/><stop offset=".499" stop-color="#409acb"/><stop offset=".829" stop-color="#acd1e9"/><stop offset=".975" stop-color="#d7e7f5"/></linearGradient><linearGradient id="g" gradientUnits="userSpaceOnUse" x1="854.919" x2="549.973" xlink:href="#f" y1="1368.18" y2="1063.235"/><linearGradient id="h" gradientTransform="matrix(.94138815 .33732529 -.33732529 .94138815 -679.009 -1958.803)" x1="2409.355" x2="2504.464" xlink:href="#d" y1="1891.763" y2="1820.279"/><linearGradient id="i" gradientUnits="userSpaceOnUse" x1="1167.257" x2="1183.475" y1="767.272" y2="2143.541"><stop offset=".004" stop-color="#000001"/><stop offset=".405" stop-color="#142f4f"/><stop offset=".517" stop-color="#28648d"/><stop offset=".634" stop-color="#3d99cb"/><stop offset=".684" stop-color="#549cd2"/><stop offset=".782" stop-color="#7fa4e0"/><stop offset=".912" stop-color="#bdd3ee"/><stop offset=".975" stop-color="#d7e7f5"/></linearGradient><linearGradient id="j" gradientUnits="userSpaceOnUse" x1="1264.416" x2="1093.842" y1="2053.864" y2="932.646"><stop offset=".064" stop-color="#b6d3ea"/><stop offset=".359" stop-color="#7fa4e0"/><stop offset=".639" stop-color="#98b9e4"/><stop offset=".921" stop-color="#b6d3ea"/></linearGradient><linearGradient id="k" gradientUnits="userSpaceOnUse" x1="821.982" x2="1529.072" y1="1469.577" y2="1469.577"><stop offset=".003" stop-color="#45cde4" stop-opacity="0"/><stop offset=".254" stop-color="#45b2e4"/><stop offset=".506" stop-color="#00ffb3" stop-opacity=".5"/><stop offset=".746" stop-color="#45cde4"/><stop offset="1" stop-color="#45cde4" stop-opacity="0"/></linearGradient><linearGradient id="l" gradientUnits="userSpaceOnUse" x1="1763.564" x2="2010.2" y1="1812.522" y2="1812.522"><stop offset=".003" stop-color="#b6d3ea"/><stop offset=".072" stop-color="#000001"/><stop offset=".17" stop-color="#16384b"/><stop offset=".346" stop-color="#3d99cb"/><stop offset=".352" stop-color="#409acb"/><stop offset=".531" stop-color="#acd1e9"/><stop offset=".61" stop-color="#d7e7f5"/></linearGradient><linearGradient id="m" gradientUnits="userSpaceOnUse" x1="1735.856" x2="1931.259" y1="1450.395" y2="1450.395"><stop offset="0" stop-color="#b6d3ea"/><stop offset=".091" stop-color="#000001"/><stop offset=".199" stop-color="#16384b"/><stop offset=".392" stop-color="#3d99cb"/><stop offset=".399" stop-color="#409acb"/><stop offset=".622" stop-color="#acd1e9"/><stop offset=".721" stop-color="#d7e7f5"/></linearGradient><linearGradient id="n" x1="1718.284" x2="1948.831" xlink:href="#m" y1="1430.215" y2="1430.215"/><linearGradient id="o" x1="1699.657" x2="1967.458" xlink:href="#g" y1="1403.601" y2="1403.601"/><linearGradient id="p" x1="1735.856" x2="1931.259" xlink:href="#g" y1="2118.093" y2="2118.093"/><linearGradient id="q" x1="1718.284" x2="1948.831" xlink:href="#g" y1="2138.273" y2="2138.273"/><linearGradient id="r" x1="1699.657" x2="1967.458" xlink:href="#g" y1="2164.887" y2="2164.887"/><linearGradient id="s" gradientUnits="userSpaceOnUse" x1="891.919" x2="1444.994" y1="1249.939" y2="1249.939"><stop offset=".003" stop-color="#45cde4" stop-opacity=".5"/><stop offset=".506" stop-color="#fff" stop-opacity=".5"/><stop offset="1" stop-color="#45cde4" stop-opacity="0"/></linearGradient><linearGradient id="t" gradientUnits="userSpaceOnUse" x1="1173.963" x2="1177.083" y1="1494.756" y2="1842.526"><stop offset=".079" stop-color="#b6d3ea"/><stop offset=".493" stop-color="#d7e7f5"/><stop offset=".777" stop-color="#7fa4e0"/><stop offset="1" stop-color="#112436"/></linearGradient><linearGradient id="u" gradientUnits="userSpaceOnUse" x1="888.91" x2="1462.562" y1="1692.425" y2="1692.425"><stop offset="0" stop-color="#00bdb9" stop-opacity="0"/><stop offset=".254" stop-color="#00bdb9"/><stop offset=".494" stop-color="#184878" stop-opacity=".5"/><stop offset=".746" stop-color="#00bdb9"/><stop offset=".997" stop-color="#00bdb9" stop-opacity="0"/></linearGradient><linearGradient id="v" x1="1744.138" x2="2049.42" xlink:href="#m" y1="1345.702" y2="1140.176"/><linearGradient id="w" gradientTransform="matrix(.85974532 .51072299 -.51072299 .85974532 875.256 -766.007)" gradientUnits="userSpaceOnUse" x1="1903.793" x2="1741.231" y1="1125.438" y2="1319.04"><stop offset=".279" stop-color="#d7e7f5"/><stop offset=".378" stop-color="#acd1e9"/><stop offset=".601" stop-color="#409acb"/><stop offset=".608" stop-color="#3d99cb"/><stop offset=".813" stop-color="#16384b"/><stop offset=".928" stop-color="#000001"/><stop offset=".997" stop-color="#b6d3ea"/></linearGradient><linearGradient id="x" gradientUnits="userSpaceOnUse" x1="1621.119" x2="1611.308" y1="1135.373" y2="747.182"><stop offset="0" stop-color="#3d99cb"/><stop offset=".126" stop-color="#4da1cf" stop-opacity=".957"/><stop offset=".313" stop-color="#7bb8db" stop-opacity=".838"/><stop offset=".538" stop-color="#c5def0" stop-opacity=".645"/><stop offset=".583" stop-color="#d7e7f5" stop-opacity=".6"/><stop offset=".921" stop-color="#d7e7f5" stop-opacity=".5"/></linearGradient><linearGradient id="y" gradientUnits="userSpaceOnUse" x1="1467.354" x2="1761.96" y1="907" y2="907"><stop offset=".003" stop-color="#00bdb9" stop-opacity="0"/><stop offset=".254" stop-color="#00bdb9"/><stop offset=".506" stop-color="#184878" stop-opacity=".5"/><stop offset=".746" stop-color="#00bdb9"/><stop offset="1" stop-color="#00bdb9" stop-opacity="0"/></linearGradient><linearGradient id="z" x1="549.937" x2="667.965" xlink:href="#g" y1="771.359" y2="741.303"/><linearGradient id="A" x1="569.34" x2="702.973" xlink:href="#g" y1="719.811" y2="719.811"/><linearGradient id="B" x1="665.377" x2="774.882" xlink:href="#g" y1="691.018" y2="790.55"/><linearGradient id="C" gradientUnits="userSpaceOnUse" x1="545.634" x2="555.78" xlink:href="#f" y1="708.113" y2="799.485"/><linearGradient id="D" gradientUnits="userSpaceOnUse" x1="702.973" x2="787.917" y1="667.442" y2="667.442"><stop offset=".025" stop-color="#d7e7f5"/><stop offset=".171" stop-color="#acd1e9"/><stop offset=".501" stop-color="#409acb"/><stop offset=".511" stop-color="#3d99cb"/><stop offset=".821" stop-color="#16384b"/><stop offset=".996" stop-color="#000001"/></linearGradient><linearGradient id="E" x1="575.632" x2="695.819" xlink:href="#D" y1="864.279" y2="806.899"/><linearGradient id="F" x1="691.135" x2="787.917" xlink:href="#C" y1="783.254" y2="783.254"/><linearGradient id="G" x1="569.34" x2="702.973" xlink:href="#D" y1="649.597" y2="649.597"/><linearGradient id="H" x1="518.231" x2="620.283" xlink:href="#C" y1="698.351" y2="621.996"/><linearGradient id="I" x1="598.34" x2="730.072" xlink:href="#C" y1="625.446" y2="608.155"/><linearGradient id="J" gradientUnits="userSpaceOnUse" x1="895.919" x2="1455.147" y1="1985.558" y2="1985.558"><stop offset=".079" stop-color="#d7e7f5" stop-opacity=".5"/><stop offset=".417" stop-color="#d7e7f5" stop-opacity=".6"/><stop offset=".506" stop-color="#c4d8f0" stop-opacity=".686"/><stop offset=".712" stop-color="#9ebbe7" stop-opacity=".857"/><stop offset=".884" stop-color="#87aae1" stop-opacity=".962"/><stop offset="1" stop-color="#7fa4e0"/></linearGradient><linearGradient id="K" x1="1072.399" x2="1278.655" xlink:href="#j" y1="2112.536" y2="2112.536"/><path d="m2009.979 456.529c-48.492 82.635-346.812 12.611-548.084 59.761-79.663 18.662-160.035 50.848-216.918 109.102-31.368 32.124-50.629 70.13-67.073 110.712-9.638 23.786-18.973 47.805-32.352 69.975-11.385 18.865-25.521 36.038-41.65 51.418-68.802 65.605-164.503 94.889-255.616 120.116-51.513 14.263-490.728 1.257-616.737 272.326-105.351 226.629-88.366 485.895 95.405 677.665 210.433 219.592 641.093 294.436 755.521 213.629 222.089-156.836 371.485-544.155 443.099-571.595 125.886-48.236 247.968-287.109 278.57-355.324 32.49-72.425-11.53-241.895 94.39-341.957 123.383-116.559 330.224-68.566 382.84-279.43 37.782-151.417-30.493-275.951-106.767-275.945-63.451.005-103.394 35.204-164.626 139.549z" fill="url(#a)"/><path d="m2169.839 1830.929c-90.199 128.988-267.885 160.433-396.873 70.234s-160.433-267.885-70.234-396.873l-183.333-128.202c-161.003 230.24-104.875 547.405 125.365 708.408s547.406 104.875 708.409-125.365z" fill="url(#b)"/><path d="m1958.738 1976.844c-19.703 0-40.031-1.931-60.999-5.803l1.815-9.834c116.03 21.422 212.302-18.725 286.143-119.328l8.062 5.917c-62.984 85.811-141.853 129.048-235.021 129.048z" fill="#fff" opacity=".42"/><path d="m856.376 1809.557v196.59c0 26.939-21.84 48.78-48.78 48.78l-20.62.05-412.76.95c-26.94 0-48.78-21.84-48.78-48.78v-196.59c0-26.94 21.84-48.78 48.78-48.78l412.76-.95 20.62-.05c26.94 0 48.78 21.84 48.78 48.78z" fill="url(#c)"/><path d="m374.225 2059.427c-28.835 0-52.288-23.453-52.288-52.28v-196.59c0-28.827 23.453-52.28 52.28-52.28l433.372-1c28.835 0 52.288 23.453 52.288 52.28v196.59c0 28.827-23.453 52.28-52.28 52.28zm433.372-295.15-433.372 1c-24.976 0-45.288 20.313-45.288 45.28v196.59c0 24.967 20.313 45.28 45.28 45.28l433.372-1c24.976 0 45.288-20.313 45.288-45.28v-196.59c0-24.967-20.313-45.28-45.28-45.28z" fill="url(#d)"/><path d="m678.048 1979.304h-295.437c-1.933 0-3.5-1.567-3.5-3.5s1.567-3.5 3.5-3.5h295.437c1.933 0 3.5 1.567 3.5 3.5s-1.567 3.5-3.5 3.5z" fill="#abc6db"/><path d="m778.401 1844.397h-262.785c-1.933 0-3.5-1.567-3.5-3.5s1.567-3.5 3.5-3.5h262.785c1.933 0 3.5 1.567 3.5 3.5s-1.567 3.5-3.5 3.5z" fill="#abc6db"/><path d="m467.225 1844.397h-84.613c-1.933 0-3.5-1.567-3.5-3.5s1.567-3.5 3.5-3.5h84.613c1.933 0 3.5 1.567 3.5 3.5s-1.567 3.5-3.5 3.5z" fill="#abc6db"/><path d="m778.401 1945.577h-258.619c-1.933 0-3.5-1.567-3.5-3.5s1.567-3.5 3.5-3.5h258.619c1.933 0 3.5 1.567 3.5 3.5s-1.567 3.5-3.5 3.5z" fill="#abc6db"/><path d="m486.821 1945.577h-104.209c-1.933 0-3.5-1.567-3.5-3.5s1.567-3.5 3.5-3.5h104.209c1.933 0 3.5 1.567 3.5 3.5s-1.567 3.5-3.5 3.5z" fill="#abc6db"/><path d="m778.401 1878.124h-173.274c-1.933 0-3.5-1.567-3.5-3.5s1.567-3.5 3.5-3.5h173.274c1.933 0 3.5 1.567 3.5 3.5s-1.567 3.5-3.5 3.5z" fill="#abc6db"/><path d="m565.015 1878.124h-182.403c-1.933 0-3.5-1.567-3.5-3.5s1.567-3.5 3.5-3.5h182.403c1.933 0 3.5 1.567 3.5 3.5s-1.567 3.5-3.5 3.5z" fill="#abc6db"/><path d="m856.376 1805.802v203.59c0 26.939-21.131 49.055-48.071 49.055h-11.329v-301.375l10.62-.05c26.94 0 48.78 21.84 48.78 48.78z" fill="url(#e)" opacity=".42"/><path d="m170.583 1664.467-47.511-36.642 280.229-363.352 216.501 216.671 411.113-898.851 54.564 24.956-447.05 977.422-229.312-229.492z" fill="url(#g)"/><path d="m1102.962 634.305-112.004-40.134 78.466-42.624z" fill="url(#h)"/><rect fill="url(#i)" height="1426.886" rx="117.734" width="700.088" x="825.489" y="756.134"/><path d="m1417.126 756.141h-483.184c-59.892 0-108.461 48.553-108.461 108.445v1209.983c0 59.892 48.569 108.445 108.461 108.445h483.184c59.892 0 108.445-48.553 108.445-108.445v-1209.983c0-59.892-48.553-108.445-108.445-108.445zm77.549 1318.428c0 42.76-34.789 77.549-77.549 77.549h-483.184c-42.76 0-77.565-34.788-77.565-77.549v-1209.983c0-42.76 34.804-77.549 77.565-77.549h108.139v21.111c0 19.972 16.191 36.163 36.163 36.163h190.62c19.972 0 36.163-16.19 36.163-36.163v-21.111h112.099c42.76 0 77.549 34.789 77.549 77.549z" fill="url(#j)"/><path d="m1417.126 2186.513h-483.184c-61.735 0-111.96-50.218-111.96-111.945v-1209.982c0-61.726 50.225-111.944 111.96-111.944h483.184c61.727 0 111.945 50.218 111.945 111.944v1209.983c0 61.727-50.218 111.945-111.945 111.945zm-483.184-1426.872c-57.875 0-104.96 47.078-104.96 104.944v1209.983c0 57.867 47.085 104.945 104.96 104.945h483.184c57.867 0 104.945-47.078 104.945-104.945v-1209.982c0-57.867-47.078-104.944-104.945-104.944h-483.184zm483.184 1395.976h-483.184c-44.699 0-81.064-36.358-81.064-81.049v-1209.982c0-44.69 36.365-81.048 81.064-81.048h108.139c1.933 0 3.5 1.567 3.5 3.5v21.111c0 18.01 14.652 32.663 32.662 32.663h190.621c18.01 0 32.663-14.652 32.663-32.663v-21.111c0-1.933 1.567-3.5 3.5-3.5h112.099c44.691 0 81.049 36.358 81.049 81.048v1209.983c0 44.69-36.358 81.049-81.049 81.049zm-483.184-1365.08c-40.839 0-74.064 33.218-74.064 74.048v1209.983c0 40.831 33.225 74.049 74.064 74.049h483.184c40.831 0 74.049-33.218 74.049-74.049v-1209.982c0-40.831-33.218-74.048-74.049-74.048h-108.599v17.611c0 21.87-17.792 39.663-39.663 39.663h-190.621c-21.87 0-39.662-17.792-39.662-39.663v-17.611h-104.639z" fill="url(#k)"/><path d="m1752.506 1455.862h162.102v713.322h-162.102z" fill="url(#l)"/><path d="m1735.856 1439.281h195.403v22.227h-195.403z" fill="url(#m)"/><path d="m1718.284 1417.639h230.547v25.152h-230.547z" fill="url(#n)"/><path d="m1699.657 1385.468h267.801v36.265h-267.801z" fill="url(#o)"/><path d="m1735.856 2106.98h195.403v22.227h-195.403z" fill="url(#p)"/><path d="m1718.284 2125.697h230.547v25.152h-230.547z" fill="url(#q)"/><path d="m1699.657 2146.754h267.801v36.265h-267.801z" fill="url(#r)"/><rect fill="#3d99cb" height="319.707" rx="51.002" width="545.075" x="910.072" y="1066.496"/><rect fill="#2a6794" height="319.707" rx="51.002" width="545.075" x="895.919" y="1090.085"/><path d="m1389.992 1413.792h-443.07c-30.329 0-55.002-24.674-55.002-55.002v-217.702c0-30.329 24.674-55.002 55.002-55.002h443.07c30.329 0 55.002 24.674 55.002 55.002v217.702c0 30.329-24.674 55.002-55.002 55.002zm-443.07-319.707c-25.917 0-47.002 21.085-47.002 47.002v217.702c0 25.917 21.085 47.002 47.002 47.002h443.07c25.917 0 47.002-21.085 47.002-47.002v-217.702c0-25.917-21.085-47.002-47.002-47.002z" fill="url(#s)"/><g fill="#d7e7f5"><path d="m973.856 1330.393c0-7.646 3.945-12.394 9.566-12.394s9.565 4.748 9.565 12.394-3.945 12.394-9.565 12.394-9.566-4.748-9.566-12.394zm17.352 0c0-6.808-3.177-10.753-7.785-10.753s-7.786 3.945-7.786 10.753 3.178 10.753 7.786 10.753 7.785-3.945 7.785-10.753z"/><path d="m996.828 1330.393c0-7.646 3.944-12.394 9.565-12.394s9.566 4.748 9.566 12.394-3.945 12.394-9.566 12.394-9.565-4.748-9.565-12.394zm17.351 0c0-6.808-3.177-10.753-7.785-10.753s-7.785 3.945-7.785 10.753 3.177 10.753 7.785 10.753 7.785-3.945 7.785-10.753z"/><path d="m1019.799 1330.393c0-7.646 3.945-12.394 9.566-12.394s9.565 4.748 9.565 12.394-3.945 12.394-9.565 12.394-9.566-4.748-9.566-12.394zm17.352 0c0-6.808-3.177-10.753-7.785-10.753s-7.786 3.945-7.786 10.753 3.178 10.753 7.786 10.753 7.785-3.945 7.785-10.753z"/><path d="m1042.77 1330.393c0-7.646 3.945-12.394 9.566-12.394s9.565 4.748 9.565 12.394-3.945 12.394-9.565 12.394-9.566-4.748-9.566-12.394zm17.352 0c0-6.808-3.177-10.753-7.785-10.753s-7.786 3.945-7.786 10.753 3.178 10.753 7.786 10.753 7.785-3.945 7.785-10.753z"/><path d="m1074.714 1330.393c0-7.646 3.944-12.394 9.565-12.394s9.566 4.748 9.566 12.394-3.945 12.394-9.566 12.394-9.565-4.748-9.565-12.394zm17.351 0c0-6.808-3.177-10.753-7.785-10.753s-7.785 3.945-7.785 10.753 3.177 10.753 7.785 10.753 7.785-3.945 7.785-10.753z"/><path d="m1097.685 1330.393c0-7.646 3.944-12.394 9.565-12.394s9.566 4.748 9.566 12.394-3.945 12.394-9.566 12.394-9.565-4.748-9.565-12.394zm17.351 0c0-6.808-3.177-10.753-7.785-10.753s-7.785 3.945-7.785 10.753 3.177 10.753 7.785 10.753 7.785-3.945 7.785-10.753z"/><path d="m1120.656 1330.393c0-7.646 3.945-12.394 9.566-12.394s9.565 4.748 9.565 12.394-3.945 12.394-9.565 12.394-9.566-4.748-9.566-12.394zm17.352 0c0-6.808-3.177-10.753-7.785-10.753s-7.786 3.945-7.786 10.753 3.178 10.753 7.786 10.753 7.785-3.945 7.785-10.753z"/><path d="m1143.628 1330.393c0-7.646 3.944-12.394 9.565-12.394s9.566 4.748 9.566 12.394-3.945 12.394-9.566 12.394-9.565-4.748-9.565-12.394zm17.351 0c0-6.808-3.177-10.753-7.785-10.753s-7.785 3.945-7.785 10.753 3.177 10.753 7.785 10.753 7.785-3.945 7.785-10.753z"/><path d="m1175.571 1330.393c0-7.646 3.944-12.394 9.565-12.394s9.566 4.748 9.566 12.394-3.945 12.394-9.566 12.394-9.565-4.748-9.565-12.394zm17.351 0c0-6.808-3.177-10.753-7.785-10.753s-7.785 3.945-7.785 10.753 3.177 10.753 7.785 10.753 7.785-3.945 7.785-10.753z"/><path d="m1198.542 1330.393c0-7.646 3.945-12.394 9.566-12.394s9.565 4.748 9.565 12.394-3.945 12.394-9.565 12.394-9.566-4.748-9.566-12.394zm17.352 0c0-6.808-3.177-10.753-7.785-10.753s-7.786 3.945-7.786 10.753 3.178 10.753 7.786 10.753 7.785-3.945 7.785-10.753z"/><path d="m1221.514 1330.393c0-7.646 3.944-12.394 9.565-12.394s9.566 4.748 9.566 12.394-3.945 12.394-9.566 12.394-9.565-4.748-9.565-12.394zm17.351 0c0-6.808-3.177-10.753-7.785-10.753s-7.785 3.945-7.785 10.753 3.177 10.753 7.785 10.753 7.785-3.945 7.785-10.753z"/><path d="m1244.484 1330.393c0-7.646 3.945-12.394 9.566-12.394s9.565 4.748 9.565 12.394-3.945 12.394-9.565 12.394-9.566-4.748-9.566-12.394zm17.352 0c0-6.808-3.177-10.753-7.785-10.753s-7.786 3.945-7.786 10.753 3.178 10.753 7.786 10.753 7.785-3.945 7.785-10.753z"/><path d="m1276.428 1330.393c0-7.646 3.945-12.394 9.566-12.394s9.565 4.748 9.565 12.394-3.945 12.394-9.565 12.394-9.566-4.748-9.566-12.394zm17.352 0c0-6.808-3.177-10.753-7.785-10.753s-7.786 3.945-7.786 10.753 3.178 10.753 7.786 10.753 7.785-3.945 7.785-10.753z"/><path d="m1299.399 1330.393c0-7.646 3.944-12.394 9.565-12.394s9.566 4.748 9.566 12.394-3.945 12.394-9.566 12.394-9.565-4.748-9.565-12.394zm17.351 0c0-6.808-3.177-10.753-7.785-10.753s-7.785 3.945-7.785 10.753 3.177 10.753 7.785 10.753 7.785-3.945 7.785-10.753z"/><path d="m1322.37 1330.393c0-7.646 3.945-12.394 9.566-12.394s9.565 4.748 9.565 12.394-3.945 12.394-9.565 12.394-9.566-4.748-9.566-12.394zm17.352 0c0-6.808-3.177-10.753-7.785-10.753s-7.786 3.945-7.786 10.753 3.178 10.753 7.786 10.753 7.785-3.945 7.785-10.753z"/><path d="m1345.342 1330.393c0-7.646 3.945-12.394 9.566-12.394s9.565 4.748 9.565 12.394-3.945 12.394-9.565 12.394-9.566-4.748-9.566-12.394zm17.352 0c0-6.808-3.177-10.753-7.785-10.753s-7.786 3.945-7.786 10.753 3.178 10.753 7.786 10.753 7.785-3.945 7.785-10.753z"/><path d="m1086.712 1238.907v2.3h-24.051v-1.8l14.801-14.701c4.15-4.15 4.95-6.601 4.95-9.251 0-4.4-3.051-7.15-8.851-7.15-4.4 0-7.65 1.3-10.051 4.05l-1.8-1.6c2.649-3.05 6.8-4.8 12.051-4.8 6.851 0 11.25 3.55 11.25 9.25 0 3.351-1.1 6.301-5.7 10.851l-12.9 12.851z"/><path d="m1096.365 1239.257c0 .75-.15 1.25-.45 2.3l-1.95 6.801h-1.8l1.649-7.051c-1-.25-1.649-1-1.649-2.05 0-1.2.899-2.101 2.1-2.101 1.25 0 2.101 1 2.101 2.101z"/><path d="m1125.117 1231.107c0 5.85-4.05 10.351-12.25 10.351-5.101 0-9.852-1.9-12.301-4.701l1.3-1.95c2.1 2.45 6.25 4.3 10.95 4.3 6.451 0 9.751-3.25 9.751-7.9 0-5-3.05-8.05-12.551-8.05h-7.101l1.851-16.951h18.551v2.3h-16.401l-1.35 12.351h5c10.65 0 14.551 4.05 14.551 10.251z"/><path d="m1156.222 1231.607c0 6.1-5.05 9.851-13.301 9.851s-13.2-3.75-13.2-9.851c0-4.4 2.7-7.451 7.45-8.701-4-1.3-6.2-4.05-6.2-7.901 0-5.6 4.7-9.05 11.95-9.05s12.051 3.45 12.051 9.05c0 3.851-2.25 6.601-6.3 7.901 4.8 1.25 7.55 4.35 7.55 8.701zm-2.55 0c0-4.65-4-7.601-10.751-7.601s-10.65 2.95-10.65 7.601c0 4.7 3.9 7.65 10.65 7.65s10.751-2.95 10.751-7.65zm-10.751-9.701c5.95 0 9.501-2.65 9.501-6.8 0-4.301-3.7-6.951-9.501-6.951s-9.4 2.65-9.4 6.9c0 4.2 3.45 6.851 9.4 6.851z"/><path d="m1186.127 1223.506c0 11.851-6.301 17.951-15.551 17.951-3 0-5.801-.5-7.951-1.8l1.051-2.05c1.8 1.15 4.25 1.6 6.9 1.6 7.851 0 13.001-5.15 13.001-15.301 0-1.05-.051-2.6-.301-4.2-1.45 4.6-5.85 7.2-11.15 7.2-7 0-11.701-4.1-11.701-10.4 0-6.4 4.951-10.551 11.651-10.551 9.2 0 14.051 6.601 14.051 17.551zm-3.95-7.15c0-4.101-3.45-8.201-10.001-8.201-5.45 0-9.2 3.25-9.2 8.3 0 5 3.6 8.251 9.5 8.251 5.751 0 9.701-3.65 9.701-8.351z"/><path d="m1191.23 1239.257c0-1.2.949-2.101 2.1-2.101s2.101.9 2.101 2.101-.95 2.15-2.101 2.15-2.1-.95-2.1-2.15z"/><path d="m1200.532 1223.706c0-10.951 5.65-17.751 13.701-17.751s13.7 6.8 13.7 17.751-5.65 17.751-13.7 17.751-13.701-6.801-13.701-17.751zm24.852 0c0-9.75-4.551-15.401-11.15-15.401s-11.151 5.65-11.151 15.401 4.551 15.401 11.151 15.401 11.15-5.65 11.15-15.401z"/><path d="m1233.436 1223.706c0-10.951 5.65-17.751 13.701-17.751s13.701 6.8 13.701 17.751-5.65 17.751-13.701 17.751-13.701-6.801-13.701-17.751zm24.852 0c0-9.75-4.55-15.401-11.15-15.401s-11.15 5.65-11.15 15.401 4.55 15.401 11.15 15.401 11.15-5.65 11.15-15.401z"/></g><circle cx="1327.804" cy="1143.369" fill="#b6d3ea" r="33.316"/><circle cx="1375.395" cy="1143.369" fill="#14496b" r="33.316"/><path d="m1351.602 1120.046c-5.892 6.004-9.524 14.245-9.524 23.32s3.631 17.316 9.524 23.32c5.884-6.004 9.516-14.237 9.516-23.32s-3.631-17.316-9.516-23.32z" fill="#3d99cb"/><rect fill="#cfd5e6" height="6.773" rx="3.386" width="73.797" x="896.011" y="900.228"/><rect fill="#cfd5e6" height="6.773" rx="3.386" width="73.797" x="896.011" y="917.328"/><rect fill="#cfd5e6" height="6.773" rx="3.386" width="73.797" x="896.011" y="934.428"/><circle cx="1421.092" cy="921.1" fill="#cfd5e6" r="34.081"/><ellipse cx="1421.092" cy="909.692" fill="#303030" rx="8.899" ry="9.287"/><path d="m1436.052 938.332h-29.92c-.835 0-1.51-.743-1.433-1.611.778-8.739 7.819-15.577 16.396-15.577s15.611 6.837 16.389 15.577c.077.867-.598 1.611-1.433 1.611z" fill="#303030"/><circle cx="1143.305" cy="1439.374" fill="#cfd5e6" r="8.519"/><circle cx="1174.653" cy="1439.374" fill="#cfd5e6" r="8.519"/><circle cx="1206" cy="1439.374" fill="#cfd5e6" r="8.519"/><path d="m1455.147 1815.347h-559.229c-1.933 0-3.5-1.567-3.5-3.5v-242.21c0-1.933 1.567-3.5 3.5-3.5s3.5 1.567 3.5 3.5v238.71h552.229v-238.71c0-1.933 1.567-3.5 3.5-3.5s3.5 1.567 3.5 3.5v242.21c0 1.933-1.567 3.5-3.5 3.5z" fill="#b6d3ea"/><path d="m892.41 1750.175s28.359-63.233 66.381-63.994c46.575-.932 103.505 60.143 137.612 60.146 38.922.003 51.242-116.282 79.409-116.702 23.456-.349 26.48 81.133 49.449 81.133 19.17 0 33.499-49.494 55.32-49.804 22.882-.325 25.705 74.394 50.934 73.102 25.17-1.289 127.547-164.419 127.547-164.419v245.576h-566.652z" fill="url(#t)"/><path d="m1459.062 1818.713h-566.652c-1.933 0-3.5-1.567-3.5-3.5v-65.038c0-.494.104-.982.307-1.432 1.195-2.665 29.723-65.265 69.505-66.062 26.312-.537 55.7 17.89 81.617 34.139 21.33 13.374 41.478 26.005 56.065 26.006 18.667.001 31.742-33.535 43.277-63.124 11.161-28.627 20.799-53.35 36.08-53.577 14.388-.202 21.204 20.899 28.417 43.252 5.729 17.755 12.222 37.879 21.084 37.879 7.478 0 15.379-11.277 23.02-22.182 9.451-13.488 19.224-27.436 32.25-27.621.071 0 .142-.001.212-.001 13.471 0 20.119 18.306 27.155 37.683 6.419 17.678 13.084 35.966 23.437 35.425 4.217-.216 19.529-8.56 70.512-81.188 28.362-40.403 53.993-81.188 54.249-81.596.83-1.322 2.432-1.936 3.932-1.503 1.5.431 2.532 1.803 2.532 3.363v245.577c0 1.933-1.567 3.5-3.5 3.5zm-563.152-7h559.652v-230.056c-9.433 14.712-28.026 43.305-47.97 71.716-52.401 74.651-68.413 83.794-75.897 84.178-.29.015-.578.022-.862.022-14.97.002-22.36-20.353-29.513-40.049-5.905-16.259-12.011-33.072-20.595-33.072-.031 0-.062 0-.093 0-9.447.134-18.176 12.592-26.617 24.639-9.068 12.942-17.633 25.166-28.753 25.166-13.959 0-20.656-20.756-27.746-42.73-5.81-18.004-12.392-38.403-21.558-38.403-.031 0-.062 0-.092 0-10.573.158-20.277 25.049-29.662 49.121-12.953 33.224-26.349 67.582-49.798 67.582h-.002c-16.6-.001-37.576-13.152-59.783-27.075-25.087-15.729-53.527-33.599-77.759-33.071-33.354.667-59.826 54.635-62.951 61.267v60.766z" fill="url(#u)"/><path d="m1733.955 1311.67c26.258 44.202 99.963 48.896 164.626 10.484s95.796-105.384 69.538-149.586c-4.923-8.288-18.735-31.539-18.735-31.539l-232.285 142.059s11.933 20.294 16.856 28.582z" fill="url(#v)"/><ellipse cx="1832.302" cy="1210.58" fill="url(#w)" rx="136.182" ry="93.092" transform="matrix(.85974532 -.51072299 .51072299 .85974532 -361.282 1105.584)"/><path d="m1597.703 1009.593h126.73c18.793 0 34.027-15.234 34.027-34.027v-137.131c0-18.793-15.234-34.027-34.027-34.027h-126.73c-18.793 0-34.027 15.234-34.027 34.027v49.148s-92.822 33.825-92.822 33.825l92.822 9.204v44.954c0 18.793 15.234 34.027 34.027 34.027z" fill="url(#x)"/><path d="m1724.434 1013.093h-126.73c-20.693 0-37.527-16.834-37.527-37.527v-41.784l-89.667-8.891c-1.625-.161-2.923-1.425-3.127-3.045s.74-3.167 2.274-3.726l90.52-32.986v-46.699c0-20.693 16.834-37.527 37.527-37.527h126.73c20.692 0 37.527 16.834 37.527 37.527v137.131c0 20.692-16.834 37.527-37.527 37.527zm-237.956-93.653 77.544 7.689c1.791.178 3.155 1.684 3.155 3.483v44.954c0 16.833 13.694 30.527 30.527 30.527h126.73c16.833 0 30.527-13.694 30.527-30.527v-137.131c0-16.833-13.694-30.527-30.527-30.527h-126.73c-16.833 0-30.527 13.694-30.527 30.527v49.148c0 1.471-.92 2.785-2.302 3.289z" fill="url(#y)"/><path d="m569.34 706.269 8.21 118.207 113.585-29.204z" fill="url(#z)"/><path d="m569.34 706.269 133.633-61.92-11.838 150.923z" fill="url(#A)"/><path d="m702.973 644.349-11.838 150.923 96.782-67.431z" fill="url(#B)"/><path d="m521.14 702.854 56.41 121.622-8.21-118.207z" fill="url(#C)"/><path d="m730.308 607.042-27.335 37.307 84.944 83.492z" fill="url(#D)"/><path d="m577.55 824.476 133.182 14.19-19.597-43.394z" fill="url(#E)"/><path d="m691.135 795.272 19.597 43.394 77.185-110.825z" fill="url(#F)"/><path d="m597.446 592.926-28.106 113.343 133.633-61.92z" fill="url(#G)"/><path d="m597.446 592.926-76.306 109.928 48.2 3.415z" fill="url(#H)"/><path d="m597.446 592.926 105.527 51.423 27.335-37.307z" fill="url(#I)"/><path d="m1663.167 945.473c-6.467 0-11.709 5.242-11.709 11.709s5.242 11.709 11.709 11.709 11.709-5.242 11.709-11.709-5.242-11.709-11.709-11.709z" fill="#b6d3ea"/><path d="m1614.657 950.196v-.647c0-2.274 1.471-4.231 3.6-5.03 5.708-2.142 9.782-7.654 9.782-14.1v-40.137c0-15.706 10.433-29.501 25.546-33.778l1.218-.345v-2.389c0-4.449 3.348-8.342 7.787-8.642 4.869-.329 8.94 3.543 8.94 8.344v2.686l1.226.347c15.108 4.275 25.538 18.066 25.538 33.767v40.146c0 6.446 4.073 11.96 9.781 14.101 2.13.799 3.601 2.756 3.601 5.031v.646c0 2.935-2.379 5.314-5.314 5.314h-86.391c-2.935 0-5.314-2.379-5.314-5.314z" fill="#b6d3ea"/><path d="m932.905 1857.411h-17.018l-3.73 8.257h-2.306l13.497-29.341h2.138l13.497 29.341h-2.306zm-.796-1.803-7.713-16.934-7.67 16.934z" fill="#d7e7f5"/><path d="m962.372 1843.788v21.88h-2.012v-4.694c-1.425 3.06-4.401 4.862-8.258 4.862-5.574 0-9.138-3.144-9.138-9.264v-12.784h2.097v12.617c0 4.946 2.641 7.545 7.209 7.545 4.946 0 8.006-3.311 8.006-8.509v-11.652h2.096z" fill="#d7e7f5"/><path d="m990.959 1843.788v19.533c0 7.335-3.563 10.646-10.604 10.646-3.982 0-7.797-1.258-10.019-3.479l1.132-1.593c2.18 2.012 5.323 3.186 8.845 3.186 5.826 0 8.551-2.683 8.551-8.509v-3.688c-1.803 3.186-5.156 4.988-9.096 4.988-6.204 0-10.898-4.401-10.898-10.647s4.694-10.605 10.898-10.605c4.023 0 7.419 1.845 9.18 5.114v-4.946h2.012zm-2.054 10.437c0-5.156-3.772-8.718-8.971-8.718-5.155 0-8.928 3.563-8.928 8.718s3.772 8.76 8.928 8.76c5.198 0 8.971-3.604 8.971-8.76z" fill="#d7e7f5"/><path d="m1128.703 1861.897.964-1.593c2.013 2.096 5.743 3.688 9.683 3.688 5.868 0 8.468-2.557 8.468-5.743 0-8.802-18.317-3.521-18.317-14.335 0-4.149 3.186-7.796 10.395-7.796 3.228 0 6.581 1.006 8.845 2.641l-.797 1.719c-2.431-1.677-5.407-2.474-8.048-2.474-5.7 0-8.257 2.641-8.257 5.868 0 8.803 18.317 3.605 18.317 14.252 0 4.149-3.312 7.754-10.563 7.754-4.359 0-8.551-1.634-10.688-3.981z" fill="#d7e7f5"/><path d="m1175.02 1855.232h-18.82c.209 5.198 4.023 8.719 9.263 8.719 2.767 0 5.323-1.006 7-3.06l1.216 1.383c-1.928 2.348-4.946 3.563-8.258 3.563-6.622 0-11.275-4.611-11.275-11.108s4.485-11.107 10.479-11.107 10.437 4.527 10.437 11.023c0 .168-.041.377-.041.587zm-18.778-1.635h16.766c-.293-4.736-3.73-8.131-8.383-8.131s-8.048 3.353-8.383 8.131z" fill="#d7e7f5"/><path d="m1203.354 1854.729c0 6.581-4.652 11.108-10.814 11.108-3.855 0-7.125-1.886-8.886-5.156v13.12h-2.096v-30.012h2.012v5.156c1.719-3.354 5.03-5.323 8.97-5.323 6.162 0 10.814 4.568 10.814 11.107zm-2.096 0c0-5.491-3.814-9.222-8.844-9.222s-8.803 3.73-8.803 9.222 3.772 9.222 8.803 9.222 8.844-3.73 8.844-9.222z" fill="#d7e7f5"/><path d="m1220.707 1864.285c-1.09 1.048-2.85 1.551-4.484 1.551-3.856 0-5.952-2.263-5.952-5.952v-14.293h-4.024v-1.802h4.024v-4.778h2.096v4.778h6.958v1.802h-6.958v14.084c0 2.809 1.383 4.359 4.065 4.359 1.3 0 2.516-.419 3.396-1.216l.88 1.467z" fill="#d7e7f5"/><path d="m1362.65 1850.998c0-8.509 6.497-14.88 15.258-14.88s15.257 6.329 15.257 14.88-6.539 14.88-15.257 14.88-15.258-6.371-15.258-14.88zm28.335 0c0-7.419-5.616-12.91-13.077-12.91-7.504 0-13.12 5.491-13.12 12.91s5.616 12.91 13.12 12.91c7.461 0 13.077-5.491 13.077-12.91z" fill="#d7e7f5"/><path d="m1397.524 1854.729c0-6.539 4.652-11.107 11.065-11.107 3.479 0 6.497 1.341 8.3 4.023l-1.551 1.132c-1.593-2.222-4.024-3.27-6.749-3.27-5.155 0-8.928 3.689-8.928 9.222s3.772 9.222 8.928 9.222c2.725 0 5.156-1.048 6.749-3.27l1.551 1.132c-1.803 2.641-4.82 4.024-8.3 4.024-6.413 0-11.065-4.611-11.065-11.108z" fill="#d7e7f5"/><path d="m1434.284 1864.285c-1.09 1.048-2.851 1.551-4.485 1.551-3.856 0-5.952-2.263-5.952-5.952v-14.293h-4.023v-1.802h4.023v-4.778h2.096v4.778h6.958v1.802h-6.958v14.084c0 2.809 1.384 4.359 4.066 4.359 1.299 0 2.515-.419 3.395-1.216l.881 1.467z" fill="#d7e7f5"/><rect fill="url(#J)" height="87.659" rx="27.445" width="559.229" x="895.919" y="1941.728"/><rect fill="url(#K)" height="11.114" rx="5.557" width="206.256" x="1072.399" y="2106.98"/></svg>