<svg id="Layer_1" data-name="Layer 1" xmlns="http://www.w3.org/2000/svg" viewBox="0 0 200 129"><defs><style>.cls-1{fill:#616161;}</style></defs><title>Our Partners</title><g id="Symbols"><g id="Footer"><g id="Group-32"><path id="path2995" class="cls-1" d="M133.87,60.45l.36-2.46h5.21l.31-2.14h-7.6L129.7,72.19h2.4l1.46-9.73h5L137.46,70h2.4l1.43-9.58Zm-58.39,0L75.84,58h5.21l.31-2.14h-7.6L71.31,72.19h2.4l1.46-9.73h5L79.06,70h2.41l1.43-9.58Zm34.39,9.15.39-1.79a9.21,9.21,0,0,0,2.73.49c1.05,0,1.27-.17,1.36-.84s0-.81-1.47-1.51c-2.08-1-2.33-1.74-2.11-3.19.27-1.92,1-2.52,3.58-2.52a10.36,10.36,0,0,1,2.9.48l-.33,1.81a10.52,10.52,0,0,0-2.53-.39c-1,0-1.24,0-1.33.74s.08.79,1.15,1.36c2.28,1.19,2.69,1.57,2.47,3.08-.31,2.14-1,2.88-3.75,2.88A9.15,9.15,0,0,1,109.87,69.6Zm8,0,.4-1.79a9,9,0,0,0,2.71.49c1.07,0,1.27-.17,1.38-.84s0-.81-1.49-1.51c-2.08-1-2.32-1.74-2.11-3.19.29-1.92,1-2.52,3.58-2.52a10.29,10.29,0,0,1,2.9.48l-.34,1.81a10.52,10.52,0,0,0-2.52-.39c-1,0-1.23,0-1.33.74s.09.79,1.17,1.36c2.25,1.19,2.66,1.57,2.45,3.08-.31,2.14-1,2.88-3.74,2.88A9.1,9.1,0,0,1,117.9,69.6Zm30.36,0,.4-1.79a9.09,9.09,0,0,0,2.73.49c1,0,1.27-.17,1.37-.84s0-.81-1.48-1.51c-2.08-1-2.33-1.74-2.11-3.19.26-1.92,1-2.52,3.57-2.52a10.42,10.42,0,0,1,2.9.48l-.33,1.81a10.59,10.59,0,0,0-2.52-.39c-1,0-1.24,0-1.34.74s.08.79,1.16,1.36c2.27,1.19,2.67,1.57,2.46,3.08-.3,2.14-1,2.88-3.74,2.88A9.2,9.2,0,0,1,148.26,69.6Zm-.11-7.19c-1.13.61-1.81,1.07-2.82,1.71L144.45,70H142l1.41-9.43,2.07-.31-.05,1.4a11.91,11.91,0,0,1,2.43-1.42Zm-41.37.42c0-.43-.39-.75-1-.75a1.59,1.59,0,0,0-1.7,1.57l-.16,1,1.41-.43C106.37,63.88,106.8,63.46,106.78,62.83Zm-3.26,4.4c-.08.53-.12,1,.76,1a9.06,9.06,0,0,0,3.68-1.1l.58,1.81A9.3,9.3,0,0,1,104,70.2c-2.57,0-3.13-1.4-2.84-3.4l.44-2.92c.36-2.26,1.37-3.64,4.29-3.64,1.86,0,3.12.93,3.17,2.49.07,1.72-1,2.7-3.67,3.51-1.15.35-1.36.41-1.82.52Zm-6.21-4a.51.51,0,0,0-.52-.66A7.53,7.53,0,0,0,94,63.65L93,70H90.6L92,60.59l2-.3v1.16a9,9,0,0,1,3.87-1.21,1.74,1.74,0,0,1,1.87,1.9,4.16,4.16,0,0,1-.06,1l-1,6.93H96.3Zm59.36,4.71L158.15,58l2.46-.38-.42,2.82h2.47l-.3,2H159.9l-.81,5.34c0,.34.09.48.44.48a4.75,4.75,0,0,0,1.66-.43l.58,1.61a6.43,6.43,0,0,1-3,.76A1.89,1.89,0,0,1,156.67,67.9ZM84,67.9,85.48,58,88,57.63l-.43,2.82H90l-.31,2H87.24l-.8,5.34c0,.34.08.48.44.48a4.65,4.65,0,0,0,1.65-.43l.57,1.61a6.32,6.32,0,0,1-3,.76A1.89,1.89,0,0,1,84,67.9Z"/><path id="path2997" class="cls-1" d="M51.45,70.54,54.2,52H43l-1,6.43h4.48L44.71,70.54H40.23l-1,6.46H55l.94-6.46ZM55.8,52l-1,6.43h9l1-6.43ZM53.53,67.2h4.74l.9-6.13H54.45Z"/><polygon id="path2999" class="cls-1" points="37.94 53.92 37.94 53.92 37.59 53.92 37.85 52.3 37.34 52.3 37.38 52 38.78 52 38.72 52.3 38.2 52.3 37.94 53.92"/><polygon id="path3001" class="cls-1" points="40.55 52.67 40.55 52.67 39.94 53.66 39.52 53.66 39.31 52.67 39 53.92 38.62 53.92 39.09 52 39.52 52 39.8 53.29 40.6 52 41.03 52 40.76 53.92 40.37 53.92 40.55 52.67"/></g></g></g></svg>