<?xml version="1.0" encoding="UTF-8"?>
<svg width="240px" height="155px" viewBox="0 0 240 155" version="1.1" xmlns="http://www.w3.org/2000/svg" xmlns:xlink="http://www.w3.org/1999/xlink">
    <title>unhcr</title>
    <g id="Page-1" stroke="none" stroke-width="1" fill="none" fill-rule="evenodd">
        <g id="Client-Logos" transform="translate(-1156.000000, -409.000000)">
            <g id="unhcr" transform="translate(1156.000000, 409.000000)">
                <rect id="Rectangle-Copy-11" fill="#FFFFFF" x="0" y="0" width="240" height="155"></rect>
                <g opacity="0.9" transform="translate(33.000000, 57.000000)" fill="#555555">
                    <path d="M25.4627783,28.4 C25.9627783,28.4 25.8627783,28.1 25.8627783,27.6 L25.8627783,25 C25.8627783,24.5 25.8627783,24.3 26.1627783,24.3 C27.1627783,24.3 27.4627783,24.2 27.4627783,23.3 L27.4627783,13.8 C27.4627783,11.2 25.6627783,11.6 25.1627783,10.7 C24.4627783,9.4 26.5627783,9.4 25.7627783,6.7 C25.5627783,6.1 25.0627783,5.7 24.1627783,5.7 C23.2627783,5.7 22.7627783,6.1 22.5627783,6.7 C21.7627783,9.5 23.8627783,9.5 23.1627783,10.7 C22.6627783,11.6 20.8627783,11.2 20.8627783,13.8 L20.8627783,23.3 C20.8627783,24.2 21.1627783,24.3 22.1627783,24.3 C22.4627783,24.3 22.3627783,24.5 22.3627783,25 L22.3627783,27.6 C22.3627783,28.1 22.2627783,28.4 22.7627783,28.4 L25.4627783,28.4" id="Fill-149"></path>
                    <path d="M17.1627783,7.8 C16.2627783,8.8 14.7627783,11.1 15.7627783,13 C17.7627783,13.8 17.5627783,6.8 19.9627783,6.9 C21.1627783,8 19.5627783,11.3 19.1627783,12.7 C18.5627783,14.5 18.0627783,18.2 16.9627783,20 C15.9627783,21.5 16.7627783,26.2 16.4627783,27.9 C15.6627783,28.7 13.4627783,28.1 12.5627783,28 C12.5627783,26.1 12.3627783,24.7 12.0627783,21.7 C12.0627783,21.1 11.3627783,11.9 11.8627783,10.8 C12.9627783,8.5 18.6627783,4.1 19.4627783,3.2 C20.0627783,2.5 22.4627783,0 23.3627783,0 C24.0627783,0.5 23.6627783,1.5 23.4627783,1.9 C22.5627783,4.2 18.5627783,6.5 17.1627783,7.8" id="Fill-151"></path>
                    <path d="M31.2627783,7.8 C32.1627783,8.8 33.6627783,11.1 32.6627783,13 C30.6627783,13.8 30.8627783,6.8 28.3627783,6.9 C27.1627783,8 28.7627783,11.3 29.2627783,12.7 C29.8627783,14.5 30.3627783,18.2 31.4627783,20 C32.3627783,21.5 31.6627783,26.2 31.9627783,27.9 C32.7627783,28.7 34.9627783,28.1 35.9627783,28 C35.9627783,26.1 36.1627783,24.7 36.4627783,21.7 C36.5627783,21.1 37.1627783,11.9 36.6627783,10.8 C35.5627783,8.5 29.8627783,4.1 29.0627783,3.2 C28.3627783,2.5 25.9627783,0 25.0627783,0 C24.3627783,0.5 24.7627783,1.5 24.9627783,1.9 C25.8627783,4.2 29.8627783,6.5 31.2627783,7.8" id="Fill-153"></path>
                    <path d="M8.86277833,4.7 C8.36277833,5.2 7.16277833,5.5 6.36277833,6.6 C6.06277833,6 6.86277833,4.6 7.76277833,3.8 C8.46277833,3.2 9.86277833,2.3 10.1627783,2.2 C10.5627783,2.9 9.46277833,4 8.86277833,4.7" id="Fill-155"></path>
                    <path d="M7.26277833,8.5 C6.36277833,9.3 5.46277833,9.6 4.26277833,11.1 C3.66277833,9.3 3.86277833,7.8 4.06277833,6.7 C4.46277833,5.3 5.16277833,3.8 6.36277833,3.3 C6.16277833,4.1 5.76277833,5.2 5.66277833,6.6 C5.16277833,8.7 4.86277833,8.7 4.96277833,9 C5.06277833,9 5.76277833,7.9 6.56277833,7.1 C7.56277833,6.1 8.76277833,5.9 9.56277833,5.4 C9.36277833,5.8 8.66277833,7 7.26277833,8.5" id="Fill-157"></path>
                    <path d="M2.96277833,16.8 C1.76277833,14.7 1.66277833,13.1 1.56277833,11.4 C1.66277833,10.2 2.26277833,7.3 3.16277833,6.9 C2.86277833,9.5 3.56277833,9.7 3.36277833,11.9 C3.36277833,12 3.06277833,14.3 3.06277833,14.4 C3.46277833,14.3 3.06277833,12.3 7.26277833,9.5 C6.36277833,11.1 6.76277833,11.6 5.16277833,13.6 C3.16277833,15.4 2.86277833,17.2 2.96277833,16.8" id="Fill-159"></path>
                    <path d="M4.66277833,18.8 C3.76277833,20.1 3.96277833,20.7 3.76277833,21.3 C1.66277833,20.1 -0.637221667,15.3 0.162778333,12.9 C0.662778333,14.7 1.46277833,15.1 1.96277833,16.6 C2.86277833,18.9 2.76277833,19.6 3.36277833,20.1 C3.26277833,18.9 3.66277833,17.5 4.06277833,16.5 C4.66277833,15.6 5.06277833,14.5 5.46277833,14.1 C5.96277833,15.8 5.56277833,17.1 4.66277833,18.8" id="Fill-161"></path>
                    <path d="M6.56277833,22.9 C6.56277833,24.7 6.26277833,25.6 6.06277833,26.9 C2.46277833,25.7 0.562778333,21.6 0.562778333,19.6 C1.66277833,22.1 3.26277833,22 5.36277833,25.5 C5.56277833,24.2 4.96277833,25.2 4.96277833,22.7 C4.96277833,20.1 5.56277833,20 5.56277833,18.4 C6.26277833,19.1 6.56277833,22 6.56277833,22.9" id="Fill-163"></path>
                    <path d="M9.46277833,28.1 C9.76277833,29.5 9.86277833,31.1 10.0627783,32.2 C8.06277833,31.4 7.46277833,32 5.06277833,30.5 C3.96277833,29.9 1.96277833,27.4 2.06277833,25.6 C4.56277833,28.3 4.96277833,28 6.16277833,29 C7.26277833,29.9 8.16277833,31.2 8.86277833,31 C8.96277833,30.3 7.06277833,28.7 7.36277833,24.2 C7.76277833,24.7 9.16277833,26.7 9.46277833,28.1" id="Fill-165"></path>
                    <path d="M13.5627783,31.5 C14.1627783,32.4 14.0627783,32.8 15.6627783,34.7 C15.2627783,34.9 12.9627783,35.5 11.3627783,35.5 C10.3627783,35.5 6.76277833,34.5 5.56277833,32.1 C7.66277833,33.2 7.66277833,32.9 10.4627783,33.5 C12.4627783,34 13.8627783,34.6 14.4627783,34.5 C14.3627783,34.2 12.7627783,33.6 11.7627783,32.3 C10.6627783,30.9 10.9627783,29.3 9.96277833,28.1 C10.5627783,28 13.0627783,30.9 13.5627783,31.5" id="Fill-167"></path>
                    <path d="M39.4627783,4.7 C39.9627783,5.2 41.1627783,5.5 41.8627783,6.6 C42.1627783,6 41.3627783,4.6 40.4627783,3.8 C39.7627783,3.2 38.4627783,2.3 38.0627783,2.2 C37.6627783,2.9 38.7627783,4 39.4627783,4.7" id="Fill-169"></path>
                    <path d="M41.0627783,8.5 C41.8627783,9.3 42.8627783,9.6 44.0627783,11.1 C44.5627783,9.3 44.4627783,7.7 44.2627783,6.7 C43.8627783,5.3 43.1627783,3.8 41.9627783,3.3 C42.2627783,4.1 42.5627783,5.2 42.6627783,6.6 C43.1627783,8.6 43.4627783,8.7 43.3627783,9 C43.2627783,9 42.5627783,7.9 41.7627783,7.1 C40.8627783,6.1 39.6627783,5.9 38.7627783,5.4 C38.8627783,5.8 39.5627783,7 41.0627783,8.5" id="Fill-171"></path>
                    <path d="M45.2627783,16.8 C46.4627783,14.7 46.5627783,13.1 46.6627783,11.4 C46.5627783,10.2 45.9627783,7.3 45.1627783,6.9 C45.3627783,9.5 44.6627783,9.7 44.9627783,11.9 C44.9627783,12 45.2627783,14.3 45.2627783,14.4 C44.9627783,14.3 45.2627783,12.3 41.1627783,9.5 C42.0627783,11.1 41.6627783,11.6 43.2627783,13.6 C45.0627783,15.4 45.3627783,17.2 45.2627783,16.8" id="Fill-173"></path>
                    <path d="M43.5627783,18.8 C44.3627783,20.1 44.2627783,20.7 44.4627783,21.3 C46.5627783,20.1 48.9627783,15.3 48.0627783,12.9 C47.5627783,14.7 46.7627783,15.1 46.2627783,16.6 C45.2627783,18.9 45.4627783,19.6 44.8627783,20.1 C44.9627783,18.9 44.5627783,17.5 44.1627783,16.5 C43.6627783,15.6 43.1627783,14.5 42.7627783,14.1 C42.2627783,15.8 42.5627783,17.1 43.5627783,18.8" id="Fill-175"></path>
                    <path d="M41.6627783,22.9 C41.6627783,24.7 42.0627783,25.6 42.1627783,26.9 C45.7627783,25.7 47.6627783,21.6 47.6627783,19.6 C46.5627783,22.1 44.9627783,22 42.8627783,25.5 C42.6627783,24.2 43.2627783,25.2 43.2627783,22.7 C43.1627783,20.1 42.6627783,20 42.5627783,18.4 C41.9627783,19.1 41.6627783,22 41.6627783,22.9" id="Fill-177"></path>
                    <path d="M38.7627783,28.1 C38.4627783,29.5 38.3627783,31.1 38.1627783,32.2 C40.1627783,31.4 40.6627783,32 43.1627783,30.5 C44.2627783,29.9 46.2627783,27.4 46.1627783,25.6 C43.7627783,28.3 43.2627783,28 42.1627783,29 C41.0627783,29.9 40.1627783,31.2 39.3627783,31 C39.2627783,30.3 41.1627783,28.7 40.9627783,24.2 C40.3627783,24.7 39.0627783,26.7 38.7627783,28.1" id="Fill-179"></path>
                    <path d="M34.6627783,31.5 C34.0627783,32.4 34.1627783,32.8 32.5627783,34.7 C32.9627783,34.9 35.2627783,35.5 36.8627783,35.5 C37.8627783,35.5 41.4627783,34.5 42.6627783,32.1 C40.5627783,33.2 40.5627783,32.9 37.7627783,33.5 C35.7627783,34 34.3627783,34.6 33.8627783,34.5 C33.9627783,34.2 35.5627783,33.6 36.5627783,32.3 C37.6627783,30.9 37.3627783,29.3 38.3627783,28.1 C37.6627783,28 35.1627783,30.9 34.6627783,31.5" id="Fill-181"></path>
                    <path d="M18.9627783,40 L18.3627783,39.7 C18.3627783,39.7 22.1627783,35 28.7627783,35.4 C35.3627783,35.8 34.8627783,37.3 38.3627783,37.1 C38.7627783,37.1 38.0627783,37.6 38.0627783,37.6 C38.0627783,37.6 34.6627783,38.9 30.3627783,37.5 C26.1627783,36 23.4627783,35.1 18.9627783,40" id="Fill-183"></path>
                    <path d="M29.3627783,40 L29.9627783,39.7 C29.9627783,39.7 26.1627783,35 19.5627783,35.4 C12.9627783,35.8 13.3627783,37.3 9.86277833,37.1 C9.46277833,37.1 10.1627783,37.6 10.1627783,37.6 C10.1627783,37.6 13.5627783,38.9 17.8627783,37.5 C22.1627783,36 24.8627783,35.1 29.3627783,40" id="Fill-185"></path>
                    <path d="M75.9627783,19.7 C75.9627783,26 72.5627783,29 65.6627783,29 C58.7627783,29 55.2627783,26 55.2627783,19.7 L55.2627783,5.7 L62.2627783,5.7 L62.2627783,18.1 C62.2627783,20.4 62.2627783,23.3 65.6627783,23.3 C68.9627783,23.3 68.9627783,20.4 68.9627783,18.1 L68.9627783,5.7 L75.9627783,5.7 L75.9627783,19.7" id="Fill-187"></path>
                    <polygon id="Fill-189" points="80.1627783 5.7 87.3627783 5.7 93.9627783 17.9 94.0627783 17.9 94.0627783 5.7 100.662778 5.7 100.662778 28.5 93.8627783 28.5 86.8627783 16.1 86.7627783 16.1 86.7627783 28.5 80.1627783 28.5"></polygon>
                    <polygon id="Fill-191" points="104.962778 5.7 111.962778 5.7 111.962778 13.6 118.462778 13.6 118.462778 5.7 125.462778 5.7 125.462778 28.5 118.462778 28.5 118.462778 19.5 111.962778 19.5 111.962778 28.5 104.962778 28.5"></polygon>
                    <path d="M143.362778,14.2 C143.262778,13.4 142.562778,10.9 139.662778,10.9 C136.362778,10.9 135.362778,14.1 135.362778,17.1 C135.362778,20.2 136.362778,23.3 139.662778,23.3 C142.062778,23.3 142.962778,21.6 143.362778,19.5 L150.262778,19.5 C150.262778,24.1 146.562778,29 139.862778,29 C132.562778,29 128.362778,23.8 128.362778,17.1 C128.362778,9.9 132.862778,5.2 139.862778,5.2 C146.062778,5.2 149.562778,8.5 150.162778,14.2 L143.362778,14.2" id="Fill-193"></path>
                    <path d="M153.262778,28.5 L160.262778,28.5 L160.262778,20.6 L163.962778,20.6 C166.762778,20.6 166.962778,22.9 167.062778,25 C167.162778,26.2 167.262778,27.4 167.662778,28.5 L174.662778,28.5 C174.062778,27.5 173.962778,24.7 173.862778,23.6 C173.562778,20.8 172.462778,18.7 170.562778,17.9 C172.862778,17 173.962778,14.6 173.962778,12.2 C173.962778,7.9 170.562778,5.7 166.562778,5.7 L153.262778,5.7 L153.262778,28.5 L153.262778,28.5 Z M160.262778,11.2 L163.562778,11.2 C166.262778,11.2 167.062778,12 167.062778,13.5 C167.062778,15.5 165.262778,15.8 163.962778,15.8 L160.262778,15.8 L160.262778,11.2 L160.262778,11.2 Z" id="Fill-195"></path>
                    <polygon id="Fill-197" points="57.5627783 33.7 55.2627783 33.7 55.2627783 32.3 61.4627783 32.3 61.4627783 33.7 59.2627783 33.7 59.2627783 39.9 57.5627783 39.9"></polygon>
                    <path d="M62.0627783,32.3 L63.5627783,32.3 L63.5627783,35.2 L63.5627783,35.2 C63.9627783,34.6 64.5627783,34.3 65.1627783,34.3 C66.7627783,34.3 67.1627783,35.2 67.1627783,36.6 L67.1627783,40 L65.6627783,40 L65.6627783,36.9 C65.6627783,36 65.3627783,35.5 64.6627783,35.5 C63.8627783,35.5 63.4627783,36 63.4627783,37.1 L63.4627783,40 L61.9627783,40 L61.9627783,32.3" id="Fill-199"></path>
                    <path d="M71.8627783,36.5 C71.7627783,35.7 71.3627783,35.3 70.6627783,35.3 C69.6627783,35.3 69.4627783,36 69.3627783,36.5 L71.8627783,36.5 L71.8627783,36.5 Z M69.3627783,37.5 C69.3627783,38.5 69.8627783,38.9 70.7627783,38.9 C71.3627783,38.9 71.8627783,38.5 71.9627783,38.2 L73.2627783,38.2 C72.8627783,39.5 71.9627783,40.1 70.6627783,40.1 C68.9627783,40.1 67.8627783,38.9 67.8627783,37.2 C67.8627783,35.5 68.9627783,34.3 70.6627783,34.3 C72.5627783,34.3 73.4627783,35.9 73.3627783,37.6 L69.3627783,37.6 L69.3627783,37.5 Z" id="Fill-201"></path>
                    <path d="M83.1627783,37 C83.1627783,39.1 81.9627783,40.1 79.8627783,40.1 C77.8627783,40.1 76.6627783,39.1 76.6627783,37 L76.6627783,32.3 L78.3627783,32.3 L78.3627783,37 C78.3627783,37.8 78.5627783,38.7 79.9627783,38.7 C81.1627783,38.7 81.5627783,38.2 81.5627783,37 L81.5627783,32.3 L83.2627783,32.3 L83.2627783,37" id="Fill-203"></path>
                    <polygon id="Fill-205" points="84.2627783 32.3 85.9627783 32.3 89.1627783 37.4 89.1627783 37.4 89.1627783 32.3 90.7627783 32.3 90.7627783 39.9 89.0627783 39.9 85.8627783 34.8 85.8627783 34.8 85.8627783 39.9 84.2627783 39.9"></polygon>
                    <path d="M94.3627783,39.9 L96.0627783,39.9 L96.0627783,36.9 L97.7627783,36.9 C98.5627783,36.9 98.9627783,37.3 99.0627783,38.1 C99.1627783,38.7 99.1627783,39.4 99.3627783,39.9 L101.062778,39.9 C100.762778,39.5 100.762778,38.6 100.762778,38.1 C100.662778,37.3 100.462778,36.5 99.6627783,36.3 L99.6627783,36.3 C100.462778,36 100.862778,35.3 100.862778,34.4 C100.862778,33.2 99.9627783,32.3 98.6627783,32.3 L94.5627783,32.3 L94.5627783,39.9 L94.3627783,39.9 Z M96.0627783,33.6 L97.8627783,33.6 C98.5627783,33.6 99.0627783,33.9 99.0627783,34.7 C99.0627783,35.5 98.6627783,35.8 97.8627783,35.8 L96.0627783,35.8 L96.0627783,33.6 Z" id="Fill-207"></path>
                    <path d="M106.962778,37.5 C107.062778,35.8 106.162778,34.2 104.262778,34.2 C102.562778,34.2 101.462778,35.5 101.462778,37.1 C101.462778,38.8 102.562778,40 104.262778,40 C105.462778,40 106.462778,39.4 106.862778,38.1 L105.562778,38.1 C105.462778,38.4 104.962778,38.8 104.362778,38.8 C103.562778,38.8 103.062778,38.4 102.962778,37.4 L106.962778,37.4 L106.962778,37.5 Z M102.962778,36.5 C102.962778,36.1 103.262778,35.3 104.262778,35.3 C104.962778,35.3 105.362778,35.7 105.462778,36.5 L102.962778,36.5 Z" id="Fill-209"></path>
                    <path d="M107.962778,35.4 L107.062778,35.4 L107.062778,34.4 L107.962778,34.4 L107.962778,34 C107.962778,33 108.562778,32.3 109.762778,32.3 C110.062778,32.3 110.262778,32.3 110.562778,32.3 L110.562778,33.4 C110.362778,33.4 110.162778,33.4 109.962778,33.4 C109.562778,33.4 109.362778,33.6 109.362778,34 L109.362778,34.3 L110.362778,34.3 L110.362778,35.3 L109.362778,35.3 L109.362778,39.8 L107.962778,39.8 L107.962778,35.4" id="Fill-211"></path>
                    <path d="M116.162778,39.9 L114.762778,39.9 L114.762778,39.1 L114.762778,39.1 C114.362778,39.7 113.762778,40 113.062778,40 C111.462778,40 111.062778,39.1 111.062778,37.7 L111.062778,34.3 L112.562778,34.3 L112.562778,37.4 C112.562778,38.3 112.862778,38.8 113.562778,38.8 C114.362778,38.8 114.762778,38.3 114.762778,37.2 L114.762778,34.3 L116.262778,34.3 L116.262778,39.9" id="Fill-213"></path>
                    <path d="M122.362778,34.4 L120.962778,34.4 L120.962778,35.1 L120.962778,35.1 C120.562778,34.5 120.062778,34.2 119.362778,34.2 C117.862778,34.2 116.962778,35.5 116.962778,36.9 C116.962778,38.4 117.662778,39.7 119.362778,39.7 C120.062778,39.7 120.662778,39.4 121.062778,38.8 L121.062778,38.8 L121.062778,39.5 C121.062778,40.3 120.662778,40.9 119.862778,40.9 C119.362778,40.9 118.862778,40.7 118.762778,40.1 L117.262778,40.1 C117.362778,41.4 118.562778,41.9 119.662778,41.9 C122.162778,41.9 122.562778,40.4 122.562778,39.5 L122.562778,34.4 M119.662778,38.6 C118.762778,38.6 118.462778,37.7 118.462778,36.9 C118.462778,36.1 118.862778,35.3 119.662778,35.3 C120.662778,35.3 120.962778,36.1 120.962778,37 C120.862778,37.9 120.462778,38.6 119.662778,38.6" id="Fill-215"></path>
                    <path d="M128.562778,37.5 C128.662778,35.8 127.762778,34.2 125.862778,34.2 C124.162778,34.2 123.062778,35.5 123.062778,37.1 C123.062778,38.8 124.162778,40 125.862778,40 C127.062778,40 128.062778,39.4 128.462778,38.1 L127.162778,38.1 C127.062778,38.4 126.562778,38.8 125.962778,38.8 C125.162778,38.8 124.662778,38.4 124.562778,37.4 L128.562778,37.4 L128.562778,37.5 Z M124.662778,36.5 C124.662778,36.1 124.962778,35.3 125.962778,35.3 C126.662778,35.3 127.062778,35.7 127.162778,36.5 L124.662778,36.5 Z" id="Fill-217"></path>
                    <path d="M134.562778,37.5 C134.662778,35.8 133.762778,34.2 131.862778,34.2 C130.162778,34.2 129.062778,35.5 129.062778,37.1 C129.062778,38.8 130.162778,40 131.862778,40 C133.062778,40 134.062778,39.4 134.462778,38.1 L133.162778,38.1 C133.062778,38.4 132.562778,38.8 131.962778,38.8 C131.162778,38.8 130.662778,38.4 130.562778,37.4 L134.562778,37.4 L134.562778,37.5 Z M130.562778,36.5 C130.562778,36.1 130.862778,35.3 131.862778,35.3 C132.562778,35.3 132.962778,35.7 133.062778,36.5 L130.562778,36.5 Z" id="Fill-219"></path>
                    <path d="M137.762778,39.9 L139.462778,39.9 L140.062778,38.2 L142.862778,38.2 L143.462778,39.9 L145.162778,39.9 L142.362778,32.3 L140.662778,32.3 L137.762778,39.9 Z M141.462778,34.2 L141.462778,34.2 L142.462778,37 L140.462778,37 L141.462778,34.2 Z" id="Fill-221"></path>
                    <path d="M150.762778,34.4 L149.362778,34.4 L149.362778,35.1 L149.362778,35.1 C148.962778,34.5 148.462778,34.2 147.762778,34.2 C146.262778,34.2 145.362778,35.5 145.362778,36.9 C145.362778,38.4 146.062778,39.7 147.762778,39.7 C148.462778,39.7 149.062778,39.4 149.462778,38.8 L149.462778,38.8 L149.462778,39.5 C149.462778,40.3 149.062778,40.9 148.262778,40.9 C147.762778,40.9 147.262778,40.7 147.162778,40.1 L145.662778,40.1 C145.762778,41.4 146.962778,41.9 148.062778,41.9 C150.562778,41.9 150.962778,40.4 150.962778,39.5 L150.962778,34.4 M148.062778,38.6 C147.162778,38.6 146.862778,37.7 146.862778,36.9 C146.862778,36.1 147.262778,35.3 148.062778,35.3 C149.062778,35.3 149.362778,36.1 149.362778,37 C149.262778,37.9 148.862778,38.6 148.062778,38.6" id="Fill-223"></path>
                    <path d="M156.962778,37.5 C157.062778,35.8 156.162778,34.2 154.262778,34.2 C152.562778,34.2 151.462778,35.5 151.462778,37.1 C151.462778,38.8 152.562778,40 154.262778,40 C155.462778,40 156.462778,39.4 156.862778,38.1 L155.562778,38.1 C155.462778,38.4 154.962778,38.8 154.362778,38.8 C153.562778,38.8 153.062778,38.4 152.962778,37.4 L156.962778,37.4 L156.962778,37.5 Z M153.062778,36.5 C153.062778,36.1 153.362778,35.3 154.362778,35.3 C155.062778,35.3 155.462778,35.7 155.562778,36.5 L153.062778,36.5 Z" id="Fill-225"></path>
                    <path d="M157.662778,34.4 L159.062778,34.4 L159.062778,35.2 L159.062778,35.2 C159.462778,34.6 160.062778,34.3 160.762778,34.3 C162.362778,34.3 162.762778,35.2 162.762778,36.6 L162.762778,40 L161.262778,40 L161.262778,36.9 C161.262778,36 160.962778,35.5 160.262778,35.5 C159.462778,35.5 159.062778,36 159.062778,37.1 L159.062778,40 L157.562778,40 L157.562778,34.4" id="Fill-227"></path>
                    <path d="M167.462778,36.3 C167.362778,35.7 166.962778,35.4 166.362778,35.4 C165.362778,35.4 165.062778,36.4 165.062778,37.2 C165.062778,38 165.362778,38.9 166.362778,38.9 C167.062778,38.9 167.462778,38.5 167.562778,37.8 L169.062778,37.8 C168.862778,39.3 167.862778,40.1 166.362778,40.1 C164.662778,40.1 163.562778,38.9 163.562778,37.3 C163.562778,35.6 164.562778,34.3 166.362778,34.3 C167.662778,34.3 168.862778,35 168.962778,36.4 L167.462778,36.4" id="Fill-229"></path>
                    <path d="M172.362778,40.6 C172.062778,41.5 171.462778,41.8 170.462778,41.8 C170.162778,41.8 169.862778,41.8 169.562778,41.7 L169.562778,40.5 C169.862778,40.5 170.162778,40.6 170.462778,40.6 C170.962778,40.5 171.162778,40 170.962778,39.6 L169.062778,34.4 L170.662778,34.4 L171.862778,38.2 L171.862778,38.2 L173.062778,34.4 L174.662778,34.4 L172.362778,40.6" id="Fill-231"></path>
                </g>
            </g>
        </g>
    </g>
</svg>