<svg id="Layer_1" data-name="Layer 1" xmlns="http://www.w3.org/2000/svg" viewBox="0 0 200 129"><defs><style>.cls-1{fill:#616161;}</style></defs><title>Our Partners</title><path class="cls-1" d="M53.32,78.11V68.25h13a5,5,0,0,1,3.6,1.41,5.06,5.06,0,0,1,1.56,3.44,5.13,5.13,0,0,1-1.56,3.6,5,5,0,0,1-3.6,1.41h-13m0-17.83V50.74H64.11a4.92,4.92,0,0,1,3.44,1.41A4.36,4.36,0,0,1,69,55.59a4.25,4.25,0,0,1-1.41,3.28,4.36,4.36,0,0,1-3.44,1.41ZM156.06,64.5c0-.63-.15-1.25-.15-1.88s-.16-1.25-.16-1.87H138.08l-2.66,4.06L132.76,69h13.61a13.06,13.06,0,0,1-4.54,6.89A12.74,12.74,0,0,1,134,78.58a13.87,13.87,0,0,1-9.69-4.23,14.07,14.07,0,0,1-3.91-10,13.58,13.58,0,0,1,3.91-9.69,14.24,14.24,0,0,1,9.85-4.22,14.72,14.72,0,0,1,4.69.78,15.38,15.38,0,0,1,3.91,2l2.35-3.75,2.34-3.76a23.42,23.42,0,0,0-5.94-3,27.75,27.75,0,0,0-7.19-.94,24.37,24.37,0,0,0-9.23,1.72,20.9,20.9,0,0,0-7.19,4.85c-4.85,4.69-6.1,9.54-7,14.08-1.1,4.53-1.57,8.6-4.85,11.88a16.16,16.16,0,0,1-4.53,3,12.36,12.36,0,0,1-5.32,1.1A13.89,13.89,0,0,1,81.94,64.34,14,14,0,0,1,86,54.65a14.71,14.71,0,0,1,10.17-4.22,14.45,14.45,0,0,1,4.53.78,13.27,13.27,0,0,1,3.91,2L107,49.49l2.34-3.91a19.06,19.06,0,0,0-5.94-2.82,27.7,27.7,0,0,0-7.19-.94A22.6,22.6,0,0,0,77.4,51.21a12,12,0,0,0-4.69-6.1,14.81,14.81,0,0,0-8.44-2.35H43.94V86.24H66.3a14.51,14.51,0,0,0,7.51-1.88,12.62,12.62,0,0,0,4.84-4.69,27.19,27.19,0,0,0,7.67,5.47,23.67,23.67,0,0,0,9.54,2,23.11,23.11,0,0,0,10.94-2.66,20.72,20.72,0,0,0,8-7.2,22,22,0,0,0,8,7.2,23.79,23.79,0,0,0,11.11,2.66,21.6,21.6,0,0,0,15.79-6.73A23,23,0,0,0,156.06,64.5Z"/></svg>