<svg version="1.1" xmlns="http://www.w3.org/2000/svg" xmlns:xlink="http://www.w3.org/1999/xlink" width="48px" height="48px" viewBox="0,0,256,256"><g transform="translate(26.66667,26.66667) scale(0.79167,0.79167)"><g fill="#dddddd" fill-rule="nonzero" stroke="none" stroke-width="1" stroke-linecap="butt" stroke-linejoin="miter" stroke-miterlimit="10" stroke-dasharray="" stroke-dashoffset="0" font-family="none" font-weight="none" font-size="none" text-anchor="none" style="mix-blend-mode: normal"><path d="M-33.68421,289.68421v-323.36842h323.36842v323.36842z" id="bgRectangle"></path></g><g fill="#dddddd" fill-rule="nonzero" stroke="#dddddd" stroke-width="6" stroke-linecap="butt" stroke-linejoin="round" stroke-miterlimit="10" stroke-dasharray="" stroke-dashoffset="0" font-family="none" font-weight="none" font-size="none" text-anchor="none" style="mix-blend-mode: normal"><path transform="scale(5.33333,5.33333)" d="M11,30c-3.31371,0 -6,-2.68629 -6,-6c0,-3.31371 2.68629,-6 6,-6c2.61244,0 4.83492,1.66962 5.65859,4h8.41441l6.74583,-7.97228c-0.52048,-0.88876 -0.81883,-1.9234 -0.81883,-3.02772c0,-3.31371 2.68629,-6 6,-6c3.31371,0 6,2.68629 6,6c0,3.31371 -2.68629,6 -6,6c-0.7496,0 -1.46708,-0.13746 -2.12864,-0.38855l-6.25136,7.38855l6.25136,7.38855c0.66155,-0.25109 1.37904,-0.38855 2.12864,-0.38855c3.31371,0 6,2.68629 6,6c0,3.31371 -2.68629,6 -6,6c-3.31371,0 -6,-2.68629 -6,-6c0,-1.10422 0.29829,-2.13877 0.81868,-3.02747l-6.74668,-7.97253h-8.41341c-0.82367,2.33038 -3.04615,4 -5.65859,4z" id="strokeMainSVG"></path></g><g fill="#607d8b" fill-rule="nonzero" stroke="none" stroke-width="1" stroke-linecap="butt" stroke-linejoin="miter" stroke-miterlimit="10" stroke-dasharray="" stroke-dashoffset="0" font-family="none" font-weight="none" font-size="none" text-anchor="none" style="mix-blend-mode: normal"><g transform="scale(5.33333,5.33333)"><path d="M11,18c-3.31371,0 -6,2.68629 -6,6c0,3.31371 2.68629,6 6,6c3.31371,0 6,-2.68629 6,-6c0,-3.31371 -2.68629,-6 -6,-6zM37,5c-3.31371,0 -6,2.68629 -6,6c0,3.31371 2.68629,6 6,6c3.31371,0 6,-2.68629 6,-6c0,-3.31371 -2.68629,-6 -6,-6zM37,31c-3.31371,0 -6,2.68629 -6,6c0,3.31371 2.68629,6 6,6c3.31371,0 6,-2.68629 6,-6c0,-3.31371 -2.68629,-6 -6,-6z"></path><path d="M38.526,12.292l-3.052,-2.584l-10.401,12.292h-14.073v4h14.072l10.402,12.292l3.052,-2.584l-9.906,-11.708z"></path></g></g></g></svg>