<svg id="Layer_1" data-name="Layer 1" xmlns="http://www.w3.org/2000/svg" viewBox="0 0 200 129"><defs><style>.cls-1{fill:#616161;}</style></defs><title>Our Partners</title><path class="cls-1" d="M36.32,48.08A18.48,18.48,0,0,1,51.93,48a17.32,17.32,0,0,0-10.71,3,15.81,15.81,0,0,0-6.65,9.23,12.66,12.66,0,0,0,.53,8.15,10.36,10.36,0,0,0,9.23,6.35,9.77,9.77,0,0,0,6.33-2.19,9.94,9.94,0,0,0,3.56-7.07,9.23,9.23,0,0,0-1.85-6.24,11.21,11.21,0,0,0-6.22-3.56A7.51,7.51,0,0,1,52.08,48a18.21,18.21,0,0,1,3.53,30.73,18.26,18.26,0,0,1-28.94-9.35,18.21,18.21,0,0,1,9.65-21.33Z"/><path class="cls-1" d="M126.77,55.08a3.77,3.77,0,0,1,2.82-1.73,7.94,7.94,0,0,1,3.89.48c-.11,1-.26,1.9-.38,2.85a3.42,3.42,0,0,0-3-.06c-.7.47-.65,1.39-.62,2.13h2.85v2.78H129.5c0,3.51,0,7,0,10.54-1.14,0-2.28,0-3.41,0,0-3.51,0-7,0-10.54h-1.77V58.75h1.77A6.44,6.44,0,0,1,126.77,55.08Z"/><path class="cls-1" d="M106,53.64h3.43V72.06c-1,0-2.1,0-3.14,0-.06-.34-.11-.68-.14-1a4.65,4.65,0,0,1-6.25.24,7.42,7.42,0,0,1-2.45-5.88,7,7,0,0,1,2.9-6,6.67,6.67,0,0,1,5.65-.57Zm-3.48,8.06a3.8,3.8,0,0,0-1.68,2.78,6.22,6.22,0,0,0,.41,3.19,2.9,2.9,0,0,0,1.76,1.65,2.85,2.85,0,0,0,3-1c0-2.2,0-4.41,0-6.62A4.15,4.15,0,0,0,102.56,61.7Z"/><path class="cls-1" d="M87.64,58.62a6.72,6.72,0,0,1,5.08.7,6.59,6.59,0,0,1,2.88,4.41,8.19,8.19,0,0,1-1,5.83,5.9,5.9,0,0,1-3.75,2.65,6.67,6.67,0,0,1-4.62-.65,6.28,6.28,0,0,1-2.75-3.45,8.17,8.17,0,0,1,.38-6.41A5.94,5.94,0,0,1,87.64,58.62Zm.88,2.8a3.14,3.14,0,0,0-1.94,2.27,6.19,6.19,0,0,0,.18,3.83,2.84,2.84,0,0,0,1.85,1.77,2.68,2.68,0,0,0,2.72-.73,4.92,4.92,0,0,0,1-3.61,4.13,4.13,0,0,0-1.28-3.05A2.74,2.74,0,0,0,88.52,61.42Z"/><path class="cls-1" d="M112.5,60a8.41,8.41,0,0,1,6.5-1.46,4.09,4.09,0,0,1,2.8,1.92,6.73,6.73,0,0,1,.72,3.7v7.87c-1,0-2.1,0-3.14,0,0-.33-.08-.66-.14-1a4.79,4.79,0,0,1-6.6-.07,4.25,4.25,0,0,1-1-4A4.15,4.15,0,0,1,114,64.46a14.11,14.11,0,0,1,5.09-1,1.9,1.9,0,0,0-.92-2c-1.55-.66-3.27.07-4.53,1C113.26,61.63,112.87,60.84,112.5,60Zm3.25,6.46a1.77,1.77,0,0,0-.78,2,1.61,1.61,0,0,0,1.47.94,3.61,3.61,0,0,0,2.67-.93c0-.91,0-1.82,0-2.72A8.91,8.91,0,0,0,115.75,66.49Z"/><path class="cls-1" d="M137.76,58.6a6.73,6.73,0,0,1,5,.7,6.53,6.53,0,0,1,2.91,4.46,8.07,8.07,0,0,1-.86,5.55,5.88,5.88,0,0,1-3.73,2.86,6.23,6.23,0,0,1-7.81-5,8,8,0,0,1,1-6A5.82,5.82,0,0,1,137.76,58.6Zm.88,2.79a3,3,0,0,0-1.88,1.88,6.09,6.09,0,0,0,0,4,3.24,3.24,0,0,0,1.08,1.59,2.7,2.7,0,0,0,3.46-.22,4.7,4.7,0,0,0,1.17-3.41,4.39,4.39,0,0,0-1.36-3.39A2.74,2.74,0,0,0,138.64,61.39Z"/><path class="cls-1" d="M151.23,59.79a6.18,6.18,0,0,1,5-1.26A3.89,3.89,0,0,1,159,60.4a8,8,0,0,1,.85,4.25v7.41c-1.15,0-2.29,0-3.43,0,0-2.47,0-4.94,0-7.41a4,4,0,0,0-.72-2.63,2.06,2.06,0,0,0-1.72-.71,3.88,3.88,0,0,0-2.62,1.31v9.44H148V58.75h3.12C151.13,59.09,151.18,59.44,151.23,59.79Z"/><path class="cls-1" d="M163.69,60.28a6.11,6.11,0,0,1,8.46-.32c1.59,1.66,1.91,4.1,1.84,6.31-2.88,0-5.75,0-8.63,0a3,3,0,0,0,1.72,2.83,6,6,0,0,0,5.47-.84c.27.94.62,1.86.88,2.8a9.41,9.41,0,0,1-4.78,1.31,6.45,6.45,0,0,1-4.87-1.78,7.36,7.36,0,0,1-1.84-5.79A6.93,6.93,0,0,1,163.69,60.28Zm2.72,1.51a3,3,0,0,0-1,2h5.11a2.81,2.81,0,0,0-1.47-2.41A2.43,2.43,0,0,0,166.41,61.79Z"/><path class="cls-1" d="M68.68,58.75h3.67c1.07,2.73,2.16,5.45,3.22,8.18a6.19,6.19,0,0,0,.28.58q1.66-4.38,3.35-8.76h3.49Q80,65.4,77.27,72.05c-1,0-2,0-3,0C72.41,67.63,70.57,63.18,68.68,58.75Z"/></svg>